<?xml version="1.0" encoding="UTF-8" standalone="no"?>
<!-- Created with Inkscape (http://www.inkscape.org/) -->

<svg
   xmlns:dc="http://purl.org/dc/elements/1.1/"
   xmlns:cc="http://creativecommons.org/ns#"
   xmlns:rdf="http://www.w3.org/1999/02/22-rdf-syntax-ns#"
   xmlns:svg="http://www.w3.org/2000/svg"
   xmlns="http://www.w3.org/2000/svg"
   version="1.1"
   width="450"
   height="290"
   viewBox="0 0 450 290"
   id="Layer_1"
   xml:space="preserve"><metadata
     id="metadata131"><rdf:RDF><cc:Work
         rdf:about=""><dc:format>image/svg+xml</dc:format><dc:type
           rdf:resource="http://purl.org/dc/dcmitype/StillImage" /><dc:title></dc:title></cc:Work></rdf:RDF></metadata><defs
     id="defs129" /><g
     id="Layer_2"><linearGradient
       x1="205.0361"
       y1="129.56641"
       x2="277.83289"
       y2="15.1567"
       id="SVGID_1_"
       gradientUnits="userSpaceOnUse"
       gradientTransform="matrix(1,0,0,-1,0,289)"><stop
         id="stop5"
         style="stop-color:#b3b3b3;stop-opacity:1"
         offset="0" /><stop
         id="stop7"
         style="stop-color:#999999;stop-opacity:1"
         offset="0.2287" /><stop
         id="stop9"
         style="stop-color:#7d7d7d;stop-opacity:1"
         offset="0.53390002" /><stop
         id="stop11"
         style="stop-color:#6c6c6c;stop-opacity:1"
         offset="0.80129999" /><stop
         id="stop13"
         style="stop-color:#666666;stop-opacity:1"
         offset="1" /></linearGradient><path
       d="m 371.03,152.598 c -6.625,-1.009 -9.223,-1.57 -15.52,0.993 -13.852,5.64 -128.77,43.089 -136.407,44.013 -8.637,1.045 -15.706,0.985 -23.199,2.817 -7.153,1.75 -16.448,1.875 -23.688,2.46 -7.483,0.604 -14.48,0.186 -21.777,-1.145 -14.862,-2.709 -22.722,-5.854 -36.918,-10.897 -13.293,-4.722 -67.308,-32.256 -71.479,-36.717 -5.317,-0.076 -14.81,0.149 -16.411,0.698 4.734,5.063 61.969,45.589 80.818,53.896 38.487,16.967 78.813,14.094 86.545,12.236 10.521,27.094 57.871,59.515 65.428,57.717 -1.205,-12.678 5.824,-55.568 -13.34,-69.579 3.659,-0.271 0.453,-0.835 4.101,-1.262 17.346,-2.027 44.864,-11.281 75.876,-30.526 10.63,-6.596 19.048,-13.598 29.712,-19.177 1.912,-0.999 5.31,-7.709 16.259,-5.527 10.949,2.182 7.353,1.119 0,0 z"
       id="path15"
       style="fill:url(#SVGID_1_)" /><path
       d="m 220.197,32.392 c -6.146,4.728 -19.071,29.926 -41.347,38.106 -6.174,2.272 -33.334,2.182 -40.925,1.898 -8.022,-0.299 -15.979,-0.152 -23.897,1.308 -3.666,0.676 -7.024,-0.067 -10.628,0.869 -3.949,1.025 -8.129,2.041 -12.11,2.932 -14.979,3.356 -28.18,10.423 -41.744,17.851 -12.566,6.881 -20.956,15.638 -29.112,27.442 -5.183,7.5 -8.875,16.923 -7.88,26.572 0.768,6.394 8.087,4.522 12.946,4.862 6.55,0.457 8.165,5.443 14.713,5.217 6.174,-0.213 3.201,3.771 9.018,5.117 5.743,1.328 9.716,5.955 15.312,7.787 5.577,1.824 8.426,6.189 14.185,7.354 6.402,1.294 14.068,7.739 20.103,10.169 12.776,5.144 25.276,11.926 38.327,15.631 14.561,4.134 29.861,5.56 38.797,4.134 15.313,-2.442 48.869,-7.463 66.087,-9.984 74.223,-10.873 92.836,-31.771 108.313,-41.688 18.162,-11.639 24.49,-4.354 24.49,-4.354 20.054,10.731 49.654,6.858 42.751,-8.056 -0.832,-1.798 -1.646,-7.665 -7.021,-10.207 -9.323,-4.409 -9.323,-5.119 -18.23,-7.895 5.06,-2.242 0.57,-9.614 -1.221,-10.843 -4.928,-3.38 -7.98,-5.002 -10.58,-5.341 -3.979,-0.519 -6.896,1.974 -13.848,5.773 -12.984,7.096 -80.119,-10.451 -86.417,-13.206 -19.927,-8.717 -54.277,-75.916 -60.082,-71.448 z"
       id="path17"
       style="fill:#b3b3b3" /><linearGradient
       x1="129.79201"
       y1="40.755402"
       x2="168.03709"
       y2="40.755402"
       id="SVGID_2_"
       gradientUnits="userSpaceOnUse"
       gradientTransform="matrix(1,0,0,-1,0,289)"><stop
         id="stop20"
         style="stop-color:#b3b3b3;stop-opacity:1"
         offset="0" /><stop
         id="stop22"
         style="stop-color:#666666;stop-opacity:1"
         offset="1" /></linearGradient><path
       d="m 165.092,259.821 c -0.303,-4.207 -5.764,-29.22 -1.695,-36.945 -0.048,-0.004 -31.201,-4.465 -33.605,-5.13 5.352,46.35 32.915,57.884 38.245,60.997 -0.258,-5.96 -2.837,-17.427 -2.945,-18.922 z"
       id="path24"
       style="fill:url(#SVGID_2_)" /><linearGradient
       x1="372.8389"
       y1="192.1514"
       x2="432.47449"
       y2="216.1951"
       id="SVGID_3_"
       gradientUnits="userSpaceOnUse"
       gradientTransform="matrix(1,0,0,-1,0,289)"><stop
         id="stop27"
         style="stop-color:#b3b3b3;stop-opacity:1"
         offset="0" /><stop
         id="stop29"
         style="stop-color:#666666;stop-opacity:1"
         offset="1" /></linearGradient><path
       d="m 444.092,31.071 c -10.575,3.589 -29.846,8.738 -38.207,16.283 -30.694,27.697 -20.035,36.813 -28.133,54.36 -14.354,24.89 13.831,26.501 14.59,25.742 2.705,-2.706 14.035,-7.265 16.312,-9.876 12.423,-14.255 15.211,-29.218 17.067,-35.452 2.193,-7.362 14.511,-39.675 18.371,-51.057 z"
       id="path31"
       style="fill:url(#SVGID_3_)" /><linearGradient
       x1="244.89549"
       y1="226.1768"
       x2="305.6181"
       y2="273.63049"
       id="SVGID_4_"
       gradientUnits="userSpaceOnUse"
       gradientTransform="matrix(1,0,0,-1,0,289)"><stop
         id="stop34"
         style="stop-color:#b3b3b3;stop-opacity:1"
         offset="0" /><stop
         id="stop36"
         style="stop-color:#666666;stop-opacity:1"
         offset="1" /></linearGradient><path
       d="m 297.777,9.866 c -14.353,-3.151 -30.568,-0.829 -35.187,0.191 -9.358,2.068 -35.291,15.857 -42.395,22.334 -2.963,2.701 13.82,23.381 16.229,26.154 8.177,9.412 20.54,28.755 31.806,35.514 2.703,1.623 -14.164,-11.712 6.551,-52.608 1.842,-3.635 18.946,-26.617 22.996,-31.585 z"
       id="path38"
       style="fill:url(#SVGID_4_)" /><linearGradient
       x1="400.0264"
       y1="135.584"
       x2="423.4545"
       y2="90.622704"
       id="SVGID_5_"
       gradientUnits="userSpaceOnUse"
       gradientTransform="matrix(1,0,0,-1,0,289)"><stop
         id="stop41"
         style="stop-color:#b3b3b3;stop-opacity:1"
         offset="0" /><stop
         id="stop43"
         style="stop-color:#666666;stop-opacity:1"
         offset="1" /></linearGradient><path
       d="m 424.227,180.325 c -1.303,-3.05 -3.338,-26.331 -4.141,-28.576 -2.379,-6.659 -33.586,4.231 -37.947,4.379 -3.535,0.119 3.821,7.89 6.515,11.785 2.233,3.231 6.676,24.108 41.137,29.448 -1.226,-4.313 -4.005,-13.388 -5.564,-17.036 z"
       id="path45"
       style="fill:url(#SVGID_5_)" /><linearGradient
       x1="222.4868"
       y1="67.546898"
       x2="255.9299"
       y2="11.6907"
       id="SVGID_6_"
       gradientUnits="userSpaceOnUse"
       gradientTransform="matrix(1,0,0,-1,0,289)"><stop
         id="stop48"
         style="stop-color:#b3b3b3;stop-opacity:1"
         offset="0" /><stop
         id="stop50"
         style="stop-color:#666666;stop-opacity:1"
         offset="1" /></linearGradient><path
       d="m 228.418,193.697 c -1.184,-7.551 -16.815,7.468 -23.746,8.201 -23.876,2.528 -14.673,12.605 -12.08,18.726 3.842,9.065 13.253,21.14 20.248,27.621 7.976,7.391 36.645,28.204 45.582,30.426 -2.46,-12.377 -1.5,-40.417 -3.427,-47.942 -6.511,-25.422 -26.542,-36.805 -26.577,-37.032 z"
       id="path52"
       style="fill:url(#SVGID_6_)" /></g><g
     id="g54"><path
       d="m 224.935,189.82 c 43.907,30.804 28.389,65.896 33.487,88.851 -29.264,-10.249 -60.58,-38.101 -68.469,-68.601"
       id="path56"
       style="fill:none;stroke:#000000;stroke-width:3.70469999;stroke-linecap:round" /><path
       d="m 25.631,153.591 c 5.461,7.541 46.298,36.869 63.066,45.56 13.184,6.83 47.395,31.172 103.895,21.475"
       id="path58"
       style="fill:none;stroke:#000000;stroke-width:3.25359988;stroke-linecap:round" /><path
       d="M 163.836,220.624"
       id="path60"
       style="fill:none;stroke:#000000;stroke-width:3.33739996;stroke-linecap:round" /><path
       d="M 129.792,215.521"
       id="path62"
       style="fill:none;stroke:#000000;stroke-width:3.33739996;stroke-linecap:round" /><g
       id="XMLID_6_"><g
         id="g65"><path
           d="m 142.092,167.105 c -1.69,4.865 -5.295,11.631 -8.25,15.67 -2.66,-3.199 -4.1,-10.619 -6.365,-14.205 l 0.005,-0.75 c 5.285,0.021 10.22,-0.263 14.61,-0.715 z"
           id="path67"
           style="fill:#ffffff" /><path
           d="m 127.482,167.82 -0.005,0.75 c -2.44,4.306 -6.275,12.726 -10.365,16.146 -2.965,-4.435 -3.87,-11.42 -4.27,-16.909 l 0.095,-0.806 c 5.035,0.561 9.925,0.806 14.545,0.819 z"
           id="path69"
           style="fill:#ffffff" /><path
           d="m 101.333,165.146 c -2.63,5.555 -8.345,12.148 -10.45,17.904 -5.45,-3.445 -5.08,-16.011 -6.95,-21.921 3.665,0.771 7.395,1.604 11.15,2.511 2.084,0.566 4.169,1.066 6.25,1.506 z"
           id="path71"
           style="fill:#ffffff" /><path
           d="m 83.932,161.131 c -1.555,3.887 -4.1,12.865 -6.99,16.061 -4.61,-4.299 -7.35,-12.396 -7.885,-18.771 l 0.02,-0.119 c 4.77,0.819 9.75,1.76 14.855,2.829 z"
           id="path73"
           style="fill:#ffffff" /><path
           d="m 65.177,157.646 c -2.46,9.89 -3.08,10.345 -5.125,14.063 -4.125,-3.784 -6.68,-10.015 -6.585,-15.574 l 0.03,-0.226 c 3.665,0.497 7.58,1.071 11.68,1.737 z"
           id="path75"
           style="fill:#ffffff" /></g><g
         id="g77"><path
           d="m 161.282,163.07 c -2.34,1.205 -9.425,3.035 -19.19,4.035 -4.39,0.451 -9.325,0.734 -14.61,0.715 -4.62,-0.014 -9.51,-0.26 -14.545,-0.819 -3.805,-0.425 -7.69,-1.028 -11.605,-1.854 -2.08,-0.439 -4.165,-0.939 -6.25,-1.504 -3.755,-0.906 -7.485,-1.74 -11.15,-2.512 -5.105,-1.068 -10.085,-2.01 -14.855,-2.829 -1.32,-0.226 -2.62,-0.444 -3.9,-0.655 -4.1,-0.664 -8.015,-1.239 -11.68,-1.734 -14.625,-1.965 -25.265,-2.59 -27.865,-2.32 -3.48,0 -12.11,1.211 -12.875,-4.314 -1.177812,-8.44657 1.881201,-17.42933 5.9,-24.214 5.595,-9.265 12.625,-16.59 21.01,-23.23 18.76,-14.845 40.62,-22.915 63.865,-27.9 12.535,-2.685 25.085,-3.495 37.88,-2.97 12.84,0.53 26.43,2.345 38.975,-1.33 11.01,-3.225 18,-11.265 24.65,-20.125 6.55,-8.73 13.52,-16.435 22.68,-22.505 8.855,-5.875 18.575,-11.14 28.516,-14.925 10.656,-4.06 21.496,-4.665 32.746,-3.385 2.938,0.335 5.869,0.755 8.799,1.175 -11.949,14.405 -22.885,29.49 -29.279,47.26 -4.891,13.58 -7.609,30.86 4.306,41.68 10.234,9.3 26.681,10.565 39.579,13.325 10.881,2.325 21.785,4.885 32.835,6.275 7.926,0.995 17.825,1.99 24.58,-3.255 6.006,-4.665 7.94,-13.01 9.716,-19.995 1.994,-7.855 3.654,-15.83 6.561,-23.42 5.335,-13.935 16.215,-23.325 29.285,-30.045 4.835,-2.49 22.483,-10.62 28.733,-10.62 -2.233,6.265 -14.18,33.29 -16,41.5 -2.318,10.479 -5.75,43.5 -35.75,54.885 20.5,5.15 23.091,12.54 25.745,19.365 3.405,8.765 4.79,24.96 6.255,34.25 0.75,4.75 4.985,12.085 5.53,16.864 -12.055,-1.939 -23.425,-4.619 -31.675,-14.311 -7.485,-8.79 -11.21,-22.84 -21.4,-29.02 -11.483,-6.971 -25.97,4.845 -34.944,11.108 -14.654,10.222 -29.136,20.597 -45.436,28.101 -14.635,6.74 -30.05,10.729 -45.863,13.531 -1.83,0.323 -3.656,0.639 -5.486,0.948"
           id="path79"
           style="fill:none;stroke:#000000;stroke-width:3.4217999;stroke-linecap:round" /><path
           d="m 53.467,156.137 c -0.095,5.561 2.46,11.79 6.585,15.574 2.045,-3.72 2.665,-4.175 5.125,-14.064"
           id="path81"
           style="fill:none;stroke:#000000;stroke-width:2.23300004;stroke-linecap:round" /><path
           d="m 69.057,158.421 c 0.535,6.375 3.275,14.472 7.885,18.771 2.89,-3.194 5.435,-12.174 6.99,-16.061"
           id="path83"
           style="fill:none;stroke:#000000;stroke-width:2.18319988;stroke-linecap:round" /><path
           d="m 83.932,161.131 c 1.87,5.91 1.5,18.477 6.95,21.921 2.105,-5.756 7.82,-12.351 10.45,-17.905"
           id="path85"
           style="fill:none;stroke:#000000;stroke-width:1.96739995;stroke-linecap:round" /><path
           d="m 112.842,167.807 c 0.4,5.489 1.305,12.476 4.27,16.909 4.09,-3.42 7.925,-11.84 10.365,-16.146"
           id="path87"
           style="fill:none;stroke:#000000;stroke-width:2.0086;stroke-linecap:round" /><path
           d="m 127.477,168.57 c 2.265,3.586 3.705,11.006 6.365,14.205 2.955,-4.039 6.56,-10.805 8.25,-15.67"
           id="path89"
           style="fill:none;stroke:#000000;stroke-width:1.98769999;stroke-linecap:round" /></g></g><g
       id="XMLID_5_"><g
         id="g92"><path
           d="m 129.792,217.746 c 2.185,24.5 15.115,50.45 38.245,60.602 -2.92,-18.632 -8.855,-36.007 -4.64,-55.472"
           id="path94"
           style="fill:none;stroke:#000000;stroke-width:3.32719994;stroke-linecap:round" /></g></g></g><g
     id="XMLID_4_"><g
       id="g97"><path
         d="m 157.237,124.141 c 5.415,0 10.8,1.46 10.8,6.875 0,5.42 -6.02,10.055 -11.435,10.055 -5.415,0 -9.175,-1.71 -9.175,-7.125 0,-5.415 4.395,-9.805 9.81,-9.805 z m -0.635,6.88 c 0,-1.97 -1.595,-3.565 -3.565,-3.565 -1.965,0 -3.56,1.595 -3.56,3.565 0,1.965 1.595,3.56 3.56,3.56 1.97,0 3.565,-1.595 3.565,-3.56 z"
         id="path99"
         style="fill:#ffffff" /><path
         d="m 153.037,127.456 c 1.97,0 3.565,1.595 3.565,3.565 0,1.965 -1.595,3.56 -3.565,3.56 -1.965,0 -3.56,-1.595 -3.56,-3.56 0,-1.97 1.595,-3.565 3.56,-3.565 z"
         id="path101"
         style="fill:#3fa9f5" /></g><g
       id="g103"><path
         d="m 168.037,131.016 c 0,5.42 -6.02,10.055 -11.435,10.055 -5.415,0 -9.175,-1.71 -9.175,-7.125 0,-5.415 4.395,-9.805 9.81,-9.805 5.415,0 10.8,1.46 10.8,6.875 z"
         id="path105"
         style="fill:none;stroke:#000000;stroke-width:3.06069994;stroke-linecap:round" /><path
         d="m 156.602,131.021 c 0,1.965 -1.595,3.56 -3.565,3.56 -1.965,0 -3.56,-1.595 -3.56,-3.56 0,-1.97 1.595,-3.565 3.56,-3.565 1.97,0 3.565,1.595 3.565,3.565 z"
         id="path107"
         style="fill:none;stroke:#000000;stroke-width:3.5;stroke-linecap:round" /></g></g><g
     id="g109"><g
       id="g111"><path
         d="m 189.866,133.607 c 1.068,8.578 3,16.61 -1.733,24.488 -0.617,1.028 1.859,0.817 2.296,0.091 4.896,-8.15 3.002,-16.317 1.891,-25.237 -0.111,-0.877 -2.576,-0.31 -2.454,0.658 l 0,0 z"
         id="path113" /></g></g><g
     id="g115"><g
       id="g117"><path
         d="m 196.217,133.363 c 0.113,7.903 2.432,17.268 -1.36,24.621 -0.652,1.262 1.837,1.322 2.354,0.317 3.907,-7.576 1.611,-16.976 1.494,-25.105 -0.017,-1.329 -2.506,-0.983 -2.488,0.167 l 0,0 z"
         id="path119" /></g></g><g
     id="g121"><g
       id="g123"><path
         d="m 201.435,133.252 c 1.379,8.252 2.41,16.763 -0.343,24.85 -0.178,0.521 2.203,0.229 2.423,-0.417 2.777,-8.16 1.767,-16.751 0.372,-25.09 -0.09,-0.549 -2.561,0.003 -2.452,0.657 l 0,0 z"
         id="path125" /></g></g></svg>